<svg xmlns="http://www.w3.org/2000/svg" viewBox="0 0 400 300"><defs><linearGradient id="g1" x1="0%" y1="0%" x2="100%" y2="100%"><stop offset="0%" stop-color="#C8956C"/><stop offset="100%" stop-color="#8B6342"/></linearGradient></defs><rect width="400" height="300" fill="#0d0d12"/><g opacity="0.9"><polygon points="200,40 260,75 260,145 200,180 140,145 140,75" fill="none" stroke="url(#g1)" stroke-width="2"/><polygon points="200,80 235,100 235,140 200,160 165,140 165,100" fill="url(#g1)" opacity="0.3"/><polygon points="130,120 165,140 165,180 130,200 95,180 95,140" fill="none" stroke="#C8956C" stroke-width="1" opacity="0.5"/><polygon points="270,120 305,140 305,180 270,200 235,180 235,140" fill="none" stroke="#C8956C" stroke-width="1" opacity="0.5"/><polygon points="200,180 235,200 235,240 200,260 165,240 165,200" fill="none" stroke="#C8956C" stroke-width="1" opacity="0.4"/><circle cx="200" cy="120" r="3" fill="#C8956C"/><circle cx="130" cy="160" r="2" fill="#C8956C" opacity="0.6"/><circle cx="270" cy="160" r="2" fill="#C8956C" opacity="0.6"/><circle cx="200" cy="220" r="2" fill="#C8956C" opacity="0.5"/></g></svg>